# xmcd
#
# Track frame offsets: 
#        150
#        11752
#        23354
#        34956
#        46643
#        58330
#        70017
#        79557
#        84494
#        91371
#        103841
#        116311
#        128781
#        141251
#        155776
#        170301
#        174299
#        178297
#        192822
#        206014
#        217564
#        228914
#        239989
#        249714
#        262264
#        273761
#        286683
#        298004
#        308974
#        318669
#
# Disc length: 4414 seconds
#
# Revision: 0
# Processed by: cddbd v1.5.2PL0 Copyright (c) Steve Scherf et al.
# Submitted via: ExactAudioCopy v0.95b3
#
DISCID=ac113c1e
DTITLE=The Beatles  - Rubber Soul Recording Sessions Reconstructed - D
DTITLE=isc 2
DYEAR=1900
DGENRE=
TTITLE0=Norwegian Wood - Take 2
TTITLE1=Norwegian Wood - SI onto take 2
TTITLE2=Norwegian Wood - SI onto take 2
TTITLE3=Norwegian Wood - Take 4
TTITLE4=Norwegian Wood - SI onto take 4
TTITLE5=Norwegian Wood - SI onto take 4
TTITLE6=Norwegian Wood - SI onto take 4
TTITLE7=In My Life - SI onto take 3
TTITLE8=In My Life - SI onto take 3
TTITLE9=Nowhere Man - Take 4
TTITLE10=Nowhere Man - SI onto take 4
TTITLE11=Nowhere Man - SI onto take 4
TTITLE12=Nowhere Man - SI onto take 4
TTITLE13=Im Looking Through You - Take 1
TTITLE14=Im Looking Through You - SI onto take 1
TTITLE15=Im Looking Through You - SI onto take 1
TTITLE16=Im Looking Through You - SI onto take 1
TTITLE17=Im Looking Through You - SI onto take 1
TTITLE18=Im Looking Through You - Take 1 complete
TTITLE19=Drive My Car - Mono mix
TTITLE20=In My Life - Mono mix
TTITLE21=If I Needed Someone - Mono mix
TTITLE22=Norwegian Wood - Mono mix
TTITLE23=Norwegian Wood - Mono mix
TTITLE24=Drive My Car - Stereo mix
TTITLE25=Day Tripper - US stereo mix
TTITLE26=In My Life - Stereo mix
TTITLE27=If I Needed Someone - Stereo mix
TTITLE28=Norwegian Wood - Stereo mix
TTITLE29=Nowhere Man - Stereo mix
EXTD=
EXTT0=
EXTT1=
EXTT2=
EXTT3=
EXTT4=
EXTT5=
EXTT6=
EXTT7=
EXTT8=
EXTT9=
EXTT10=
EXTT11=
EXTT12=
EXTT13=
EXTT14=
EXTT15=
EXTT16=
EXTT17=
EXTT18=
EXTT19=
EXTT20=
EXTT21=
EXTT22=
EXTT23=
EXTT24=
EXTT25=
EXTT26=
EXTT27=
EXTT28=
EXTT29=
PLAYORDER=
